<?xml version="1.0" encoding="UTF-8"?><svg id="logosandtypes_com" xmlns="http://www.w3.org/2000/svg" viewBox="0 0 150 150"><defs><style>.cls-1{fill:#ed2e2e;stroke:#ed2e2e;stroke-miterlimit:10;}.cls-2{fill:none;}</style></defs><g id="Layer_3"><path id="Layer_3-2" class="cls-2" d="M0,0H150V150H0V0Z"/></g><path class="cls-1" d="M72.18,70.98h24.27c-1.96-9.41-10.3-16.48-20.29-16.48-11.44,0-20.72,9.28-20.72,20.72s9.28,20.72,20.72,20.72c5,0,9.58-1.77,13.15-4.71l5.96,7.05c-5.19,4.3-11.85,6.89-19.12,6.89-16.54,0-29.95-13.41-29.95-29.95s13.41-29.95,29.95-29.95c15.1,0,27.59,11.17,29.65,25.71h9.03c-2.11-19.5-18.63-34.67-38.69-34.67-21.49,0-38.92,17.42-38.92,38.92s17.43,38.92,38.92,38.92c9.47,0,18.16-3.39,24.91-9.02l5.73,6.77c-8.29,6.94-18.98,11.12-30.64,11.12-26.39,0-47.79-21.4-47.79-47.79S49.77,27.43,76.16,27.43c24.96,0,45.45,19.14,47.6,43.54h9.46c-2.17-29.62-26.89-52.98-57.06-52.98S18.94,43.62,18.94,75.22s25.62,57.22,57.22,57.22c13.98,0,26.8-5.02,36.73-13.35l5.8,6.86c-11.51,9.66-26.34,15.47-42.54,15.47-36.57,0-66.21-29.64-66.21-66.21S39.6,9.01,76.16,9.01s63.89,27.38,66.07,61.96c.19,2.91,.18,5.9-.02,8.81h-62.58l-7.46-8.81Z"/></svg>